<svg width="20" height="20" viewBox="0 0 20 20" fill="none" xmlns="http://www.w3.org/2000/svg">
<path d="M9.48937 1.54007L3.24666 4.39768C2.77063 4.61559 2.47437 5.11328 2.50175 5.64907L2.80138 12.1428C2.84871 13.0691 3.25591 13.9368 3.93124 14.5506L8.33631 17.9234C9.28687 18.7873 10.7131 18.7873 11.6637 17.9234L16.0688 14.5506C16.7441 13.9368 17.1513 13.0691 17.1986 12.1428L17.4983 5.64907C17.5256 5.11328 17.2294 4.61559 16.7533 4.39768L10.5106 1.54007C10.1855 1.39126 9.81446 1.39126 9.48937 1.54007Z" fill="#00AA2A"/>
<path fill-rule="evenodd" clip-rule="evenodd" d="M14.0569 7.16451L13.5677 6.75405C13.2975 6.52753 12.8948 6.56271 12.6679 6.83264L9.22392 10.9348L7.66964 9.59702C7.40656 9.37059 7.01078 9.39577 6.77852 9.65372L6.35007 10.1296L6.34195 10.1388C6.11104 10.4053 6.13995 10.8086 6.40652 11.0395L7.98675 12.4084L7.98659 12.4086L7.99876 12.4188L8.94683 13.24L8.95678 13.2485C9.22801 13.4739 9.63063 13.4367 9.85604 13.1655L10.2097 12.74L14.1354 8.06404L14.1357 8.06402C14.3624 7.79385 14.3271 7.39107 14.0569 7.16451Z" fill="white"/>
</svg>
